# xmcd
#
# Track frame offsets: 
#        150
#        17088
#        40038
#        49113
#        64113
#        80688
#        101763
#        114813
#        135438
#        151788
#        166713
#        178713
#        198588
#        212838
#
# Disc length: 3078 seconds
#
# Revision: 0
# Processed by: cddbd v1.5.2PL0 Copyright (c) Steve Scherf et al.
# Submitted via: ExactAudioCopy v1.0b3
#
DISCID=b00c040e
DTITLE=Die Bergkammeraden - Weihnacht verzaubert die Welt
DYEAR=2011
DGENRE=Folk
TTITLE0=Auf der Schlittenfahrt
TTITLE1=Gloria in excelsis deo
TTITLE2=Andachtsjodler
TTITLE3=Lasst uns folgen dem Stern
TTITLE4=Das Leben ist ein Weihnachtsmarkt
TTITLE5=Gesegnet sei die heilige Nacht
TTITLE6=Es ist ein Ros entsprungen
TTITLE7=Ich künde euch den Heiland an
TTITLE8=Es wird scho glei dumpa
TTITLE9=Weihnacht verzaubert die Welt
TTITLE10=Jagertee
TTITLE11=Besinnliche Stunden
TTITLE12=Und wieder geht ein Jahr zu Ende
TTITLE13=Stille Nacht
EXTD=
EXTT0=
EXTT1=
EXTT2=
EXTT3=
EXTT4=
EXTT5=
EXTT6=
EXTT7=
EXTT8=
EXTT9=
EXTT10=
EXTT11=
EXTT12=
EXTT13=
PLAYORDER=
